<svg width="176" height="167" viewBox="0 0 176 167" fill="none" xmlns="http://www.w3.org/2000/svg">
<circle cx="88.5" cy="31.5" r="31.5" fill="#08A6E4"/>
<path d="M20.9455 95C20.9455 94.3733 20.9921 93.8133 21.0855 93.32C21.1921 92.8267 21.3588 92.38 21.5855 91.98C21.8255 91.5667 22.1388 91.1867 22.5255 90.84C22.9255 90.48 23.4255 90.14 24.0255 89.82C24.6521 89.4867 25.1721 89.2067 25.5855 88.98C26.0121 88.74 26.3521 88.54 26.6055 88.38C26.8588 88.22 27.0321 88.0667 27.1255 87.92C27.2321 87.76 27.2855 87.5867 27.2855 87.4C27.2855 87.1467 27.2255 86.9267 27.1055 86.74C26.9855 86.5533 26.8121 86.4133 26.5855 86.32C26.3588 86.2133 26.0788 86.16 25.7455 86.16C25.4788 86.16 25.2255 86.1933 24.9855 86.26C24.7455 86.3267 24.5121 86.4267 24.2855 86.56C24.0721 86.6933 23.8655 86.8533 23.6655 87.04C23.4655 87.2133 23.2655 87.4133 23.0655 87.64L21.0455 85.28C21.2721 85.0533 21.5588 84.8267 21.9055 84.6C22.2655 84.3733 22.6721 84.1733 23.1255 84C23.5788 83.8133 24.0721 83.6667 24.6055 83.56C25.1521 83.44 25.7188 83.38 26.3055 83.38C27.2655 83.38 28.0721 83.5267 28.7255 83.82C29.3921 84.1 29.8988 84.5 30.2455 85.02C30.5921 85.54 30.7655 86.1533 30.7655 86.86C30.7655 87.3133 30.6921 87.7133 30.5455 88.06C30.4121 88.3933 30.2321 88.6933 30.0055 88.96C29.7788 89.2267 29.5188 89.4667 29.2255 89.68C28.9455 89.8933 28.6655 90.0867 28.3855 90.26C28.0655 90.42 27.7655 90.58 27.4855 90.74C27.2055 90.8867 26.9455 91.0333 26.7055 91.18C26.4655 91.3133 26.2388 91.46 26.0255 91.62C25.8255 91.7667 25.6321 91.9333 25.4455 92.12H30.9855V95H20.9455ZM49.167 89.14C49.167 90.3133 48.9404 91.36 48.487 92.28C48.0337 93.1867 47.4137 93.9 46.627 94.42C45.8404 94.94 44.947 95.2 43.947 95.2C42.9604 95.2 42.067 94.94 41.267 94.42C40.4804 93.9 39.8604 93.1867 39.407 92.28C38.9537 91.36 38.727 90.3133 38.727 89.14C38.727 87.9667 38.9537 86.9267 39.407 86.02C39.8604 85.1 40.4804 84.38 41.267 83.86C42.067 83.3267 42.9604 83.06 43.947 83.06C44.947 83.06 45.8404 83.3267 46.627 83.86C47.4137 84.38 48.0337 85.1 48.487 86.02C48.9404 86.9267 49.167 87.9667 49.167 89.14ZM45.947 89.14C45.947 88.5133 45.8604 87.9667 45.687 87.5C45.5137 87.0333 45.2737 86.6667 44.967 86.4C44.6737 86.1333 44.3337 86 43.947 86C43.547 86 43.1937 86.1333 42.887 86.4C42.5804 86.6667 42.3404 87.0333 42.167 87.5C42.007 87.9667 41.927 88.5133 41.927 89.14C41.927 89.7667 42.007 90.3133 42.167 90.78C42.3404 91.2467 42.5804 91.6133 42.887 91.88C43.1937 92.1333 43.547 92.26 43.947 92.26C44.3337 92.26 44.6737 92.1333 44.967 91.88C45.2737 91.6133 45.5137 91.2467 45.687 90.78C45.8604 90.3133 45.947 89.7667 45.947 89.14ZM67.4122 89.14C67.4122 90.3133 67.1855 91.36 66.7322 92.28C66.2789 93.1867 65.6589 93.9 64.8722 94.42C64.0855 94.94 63.1922 95.2 62.1922 95.2C61.2055 95.2 60.3122 94.94 59.5122 94.42C58.7255 93.9 58.1055 93.1867 57.6522 92.28C57.1989 91.36 56.9722 90.3133 56.9722 89.14C56.9722 87.9667 57.1989 86.9267 57.6522 86.02C58.1055 85.1 58.7255 84.38 59.5122 83.86C60.3122 83.3267 61.2055 83.06 62.1922 83.06C63.1922 83.06 64.0855 83.3267 64.8722 83.86C65.6589 84.38 66.2789 85.1 66.7322 86.02C67.1855 86.9267 67.4122 87.9667 67.4122 89.14ZM64.1922 89.14C64.1922 88.5133 64.1055 87.9667 63.9322 87.5C63.7589 87.0333 63.5189 86.6667 63.2122 86.4C62.9189 86.1333 62.5789 86 62.1922 86C61.7922 86 61.4389 86.1333 61.1322 86.4C60.8255 86.6667 60.5855 87.0333 60.4122 87.5C60.2522 87.9667 60.1722 88.5133 60.1722 89.14C60.1722 89.7667 60.2522 90.3133 60.4122 90.78C60.5855 91.2467 60.8255 91.6133 61.1322 91.88C61.4389 92.1333 61.7922 92.26 62.1922 92.26C62.5789 92.26 62.9189 92.1333 63.2122 91.88C63.5189 91.6133 63.7589 91.2467 63.9322 90.78C64.1055 90.3133 64.1922 89.7667 64.1922 89.14ZM85.6573 89.14C85.6573 90.3133 85.4307 91.36 84.9773 92.28C84.524 93.1867 83.904 93.9 83.1173 94.42C82.3307 94.94 81.4373 95.2 80.4373 95.2C79.4507 95.2 78.5573 94.94 77.7573 94.42C76.9707 93.9 76.3507 93.1867 75.8973 92.28C75.444 91.36 75.2173 90.3133 75.2173 89.14C75.2173 87.9667 75.444 86.9267 75.8973 86.02C76.3507 85.1 76.9707 84.38 77.7573 83.86C78.5573 83.3267 79.4507 83.06 80.4373 83.06C81.4373 83.06 82.3307 83.3267 83.1173 83.86C83.904 84.38 84.524 85.1 84.9773 86.02C85.4307 86.9267 85.6573 87.9667 85.6573 89.14ZM82.4373 89.14C82.4373 88.5133 82.3507 87.9667 82.1773 87.5C82.004 87.0333 81.764 86.6667 81.4573 86.4C81.164 86.1333 80.824 86 80.4373 86C80.0373 86 79.684 86.1333 79.3773 86.4C79.0707 86.6667 78.8307 87.0333 78.6573 87.5C78.4973 87.9667 78.4173 88.5133 78.4173 89.14C78.4173 89.7667 78.4973 90.3133 78.6573 90.78C78.8307 91.2467 79.0707 91.6133 79.3773 91.88C79.684 92.1333 80.0373 92.26 80.4373 92.26C80.824 92.26 81.164 92.1333 81.4573 91.88C81.764 91.6133 82.004 91.2467 82.1773 90.78C82.3507 90.3133 82.4373 89.7667 82.4373 89.14ZM103.902 89.14C103.902 90.3133 103.676 91.36 103.222 92.28C102.769 93.1867 102.149 93.9 101.362 94.42C100.576 94.94 99.6825 95.2 98.6825 95.2C97.6958 95.2 96.8025 94.94 96.0025 94.42C95.2158 93.9 94.5958 93.1867 94.1425 92.28C93.6892 91.36 93.4625 90.3133 93.4625 89.14C93.4625 87.9667 93.6892 86.9267 94.1425 86.02C94.5958 85.1 95.2158 84.38 96.0025 83.86C96.8025 83.3267 97.6958 83.06 98.6825 83.06C99.6825 83.06 100.576 83.3267 101.362 83.86C102.149 84.38 102.769 85.1 103.222 86.02C103.676 86.9267 103.902 87.9667 103.902 89.14ZM100.682 89.14C100.682 88.5133 100.596 87.9667 100.422 87.5C100.249 87.0333 100.009 86.6667 99.7025 86.4C99.4092 86.1333 99.0692 86 98.6825 86C98.2825 86 97.9292 86.1333 97.6225 86.4C97.3158 86.6667 97.0758 87.0333 96.9025 87.5C96.7425 87.9667 96.6625 88.5133 96.6625 89.14C96.6625 89.7667 96.7425 90.3133 96.9025 90.78C97.0758 91.2467 97.3158 91.6133 97.6225 91.88C97.9292 92.1333 98.2825 92.26 98.6825 92.26C99.0692 92.26 99.4092 92.1333 99.7025 91.88C100.009 91.6133 100.249 91.2467 100.422 90.78C100.596 90.3133 100.682 89.7667 100.682 89.14ZM122.148 89.14C122.148 90.3133 121.921 91.36 121.468 92.28C121.014 93.1867 120.394 93.9 119.608 94.42C118.821 94.94 117.928 95.2 116.928 95.2C115.941 95.2 115.048 94.94 114.248 94.42C113.461 93.9 112.841 93.1867 112.388 92.28C111.934 91.36 111.708 90.3133 111.708 89.14C111.708 87.9667 111.934 86.9267 112.388 86.02C112.841 85.1 113.461 84.38 114.248 83.86C115.048 83.3267 115.941 83.06 116.928 83.06C117.928 83.06 118.821 83.3267 119.608 83.86C120.394 84.38 121.014 85.1 121.468 86.02C121.921 86.9267 122.148 87.9667 122.148 89.14ZM118.928 89.14C118.928 88.5133 118.841 87.9667 118.668 87.5C118.494 87.0333 118.254 86.6667 117.948 86.4C117.654 86.1333 117.314 86 116.928 86C116.528 86 116.174 86.1333 115.868 86.4C115.561 86.6667 115.321 87.0333 115.148 87.5C114.988 87.9667 114.908 88.5133 114.908 89.14C114.908 89.7667 114.988 90.3133 115.148 90.78C115.321 91.2467 115.561 91.6133 115.868 91.88C116.174 92.1333 116.528 92.26 116.928 92.26C117.314 92.26 117.654 92.1333 117.948 91.88C118.254 91.6133 118.494 91.2467 118.668 90.78C118.841 90.3133 118.928 89.7667 118.928 89.14ZM140.393 89.14C140.393 90.3133 140.166 91.36 139.713 92.28C139.259 93.1867 138.639 93.9 137.853 94.42C137.066 94.94 136.173 95.2 135.173 95.2C134.186 95.2 133.293 94.94 132.493 94.42C131.706 93.9 131.086 93.1867 130.633 92.28C130.179 91.36 129.953 90.3133 129.953 89.14C129.953 87.9667 130.179 86.9267 130.633 86.02C131.086 85.1 131.706 84.38 132.493 83.86C133.293 83.3267 134.186 83.06 135.173 83.06C136.173 83.06 137.066 83.3267 137.853 83.86C138.639 84.38 139.259 85.1 139.713 86.02C140.166 86.9267 140.393 87.9667 140.393 89.14ZM137.173 89.14C137.173 88.5133 137.086 87.9667 136.913 87.5C136.739 87.0333 136.499 86.6667 136.193 86.4C135.899 86.1333 135.559 86 135.173 86C134.773 86 134.419 86.1333 134.113 86.4C133.806 86.6667 133.566 87.0333 133.393 87.5C133.233 87.9667 133.153 88.5133 133.153 89.14C133.153 89.7667 133.233 90.3133 133.393 90.78C133.566 91.2467 133.806 91.6133 134.113 91.88C134.419 92.1333 134.773 92.26 135.173 92.26C135.559 92.26 135.899 92.1333 136.193 91.88C136.499 91.6133 136.739 91.2467 136.913 90.78C137.086 90.3133 137.173 89.7667 137.173 89.14ZM154.858 86.62V89.18H152.958V91.26H150.078V89.18H148.198V86.62H150.078V84.54H152.958V86.62H154.858Z" fill="black"/>
<path d="M36.8969 134.16C36.2143 134.16 35.5796 134.048 34.9929 133.824C34.4063 133.6 33.8996 133.259 33.4729 132.8L33.9209 132.032C34.3903 132.469 34.8596 132.789 35.3289 132.992C35.8089 133.184 36.3156 133.28 36.8489 133.28C37.4996 133.28 38.0276 133.152 38.4329 132.896C38.8383 132.629 39.0409 132.251 39.0409 131.76C39.0409 131.429 38.9396 131.179 38.7369 131.008C38.5449 130.827 38.2623 130.683 37.8889 130.576C37.5263 130.459 37.0889 130.336 36.5769 130.208C36.0009 130.048 35.5156 129.883 35.1209 129.712C34.7369 129.531 34.4436 129.307 34.2409 129.04C34.0489 128.763 33.9529 128.405 33.9529 127.968C33.9529 127.424 34.0863 126.976 34.3529 126.624C34.6303 126.261 35.0036 125.989 35.4729 125.808C35.9529 125.616 36.4863 125.52 37.0729 125.52C37.7129 125.52 38.2783 125.621 38.7689 125.824C39.2596 126.027 39.6596 126.309 39.9689 126.672L39.4409 127.408C39.1423 127.067 38.7849 126.816 38.3689 126.656C37.9636 126.485 37.5103 126.4 37.0089 126.4C36.6676 126.4 36.3423 126.448 36.0329 126.544C35.7236 126.629 35.4676 126.779 35.2649 126.992C35.0729 127.195 34.9769 127.477 34.9769 127.84C34.9769 128.139 35.0516 128.373 35.2009 128.544C35.3503 128.704 35.5743 128.843 35.8729 128.96C36.1716 129.067 36.5396 129.184 36.9769 129.312C37.6063 129.483 38.1556 129.659 38.6249 129.84C39.0943 130.011 39.4569 130.235 39.7129 130.512C39.9689 130.789 40.0969 131.179 40.0969 131.68C40.0969 132.459 39.8036 133.067 39.2169 133.504C38.6303 133.941 37.8569 134.16 36.8969 134.16ZM45.4953 134.16C44.898 134.16 44.3433 134.048 43.8313 133.824C43.3193 133.589 42.8766 133.275 42.5033 132.88C42.13 132.475 41.8366 132.011 41.6233 131.488C41.4206 130.965 41.3193 130.405 41.3193 129.808C41.3193 129.029 41.4953 128.315 41.8473 127.664C42.21 127.013 42.706 126.496 43.3353 126.112C43.9646 125.717 44.6793 125.52 45.4793 125.52C46.3006 125.52 47.0153 125.717 47.6233 126.112C48.242 126.507 48.7273 127.029 49.0793 127.68C49.4313 128.32 49.6073 129.024 49.6073 129.792C49.6073 129.877 49.6073 129.963 49.6073 130.048C49.6073 130.123 49.602 130.181 49.5913 130.224H42.4553C42.5086 130.821 42.674 131.355 42.9513 131.824C43.2393 132.283 43.6073 132.651 44.0553 132.928C44.514 133.195 45.01 133.328 45.5433 133.328C46.0873 133.328 46.5993 133.189 47.0793 132.912C47.57 132.635 47.9113 132.272 48.1033 131.824L49.0473 132.08C48.8766 132.475 48.6153 132.832 48.2633 133.152C47.9113 133.472 47.4953 133.723 47.0153 133.904C46.546 134.075 46.0393 134.16 45.4953 134.16ZM42.4233 129.44H48.5833C48.5406 128.832 48.3753 128.299 48.0873 127.84C47.81 127.381 47.442 127.024 46.9833 126.768C46.5353 126.501 46.0393 126.368 45.4953 126.368C44.9513 126.368 44.4553 126.501 44.0073 126.768C43.5593 127.024 43.1913 127.387 42.9033 127.856C42.626 128.315 42.466 128.843 42.4233 129.44ZM54.8859 134.16C54.2886 134.16 53.7339 134.048 53.2219 133.824C52.7099 133.589 52.2673 133.275 51.8939 132.88C51.5206 132.475 51.2273 132.011 51.0139 131.488C50.8113 130.965 50.7099 130.405 50.7099 129.808C50.7099 129.029 50.8859 128.315 51.2379 127.664C51.6006 127.013 52.0966 126.496 52.7259 126.112C53.3553 125.717 54.0699 125.52 54.8699 125.52C55.6913 125.52 56.4059 125.717 57.0139 126.112C57.6326 126.507 58.1179 127.029 58.4699 127.68C58.8219 128.32 58.9979 129.024 58.9979 129.792C58.9979 129.877 58.9979 129.963 58.9979 130.048C58.9979 130.123 58.9926 130.181 58.9819 130.224H51.8459C51.8993 130.821 52.0646 131.355 52.3419 131.824C52.6299 132.283 52.9979 132.651 53.4459 132.928C53.9046 133.195 54.4006 133.328 54.9339 133.328C55.4779 133.328 55.9899 133.189 56.4699 132.912C56.9606 132.635 57.3019 132.272 57.4939 131.824L58.4379 132.08C58.2673 132.475 58.0059 132.832 57.6539 133.152C57.3019 133.472 56.8859 133.723 56.4059 133.904C55.9366 134.075 55.4299 134.16 54.8859 134.16ZM51.8139 129.44H57.9739C57.9313 128.832 57.7659 128.299 57.4779 127.84C57.2006 127.381 56.8326 127.024 56.3739 126.768C55.9259 126.501 55.4299 126.368 54.8859 126.368C54.3419 126.368 53.8459 126.501 53.3979 126.768C52.9499 127.024 52.5819 127.387 52.2939 127.856C52.0166 128.315 51.8566 128.843 51.8139 129.44ZM67.6846 134H66.5966V129.344C66.5966 128.363 66.4526 127.648 66.1646 127.2C65.8766 126.741 65.4232 126.512 64.8046 126.512C64.3779 126.512 63.9566 126.619 63.5406 126.832C63.1246 127.035 62.7566 127.317 62.4366 127.68C62.1272 128.032 61.9032 128.437 61.7646 128.896V134H60.6766V125.664H61.6686V127.552C61.8926 127.147 62.1859 126.795 62.5486 126.496C62.9112 126.187 63.3219 125.947 63.7806 125.776C64.2392 125.605 64.7139 125.52 65.2046 125.52C65.6632 125.52 66.0526 125.605 66.3726 125.776C66.6926 125.947 66.9486 126.192 67.1406 126.512C67.3326 126.821 67.4712 127.2 67.5566 127.648C67.6419 128.085 67.6846 128.576 67.6846 129.12V134ZM78.3388 134.16C77.6455 134.16 77.0215 133.979 76.4668 133.616C75.9228 133.253 75.4908 132.805 75.1708 132.272V137.408H74.0828V125.664H75.0588V127.28C75.3895 126.757 75.8321 126.336 76.3868 126.016C76.9415 125.685 77.5335 125.52 78.1628 125.52C78.7388 125.52 79.2668 125.643 79.7468 125.888C80.2268 126.123 80.6428 126.443 80.9948 126.848C81.3468 127.253 81.6188 127.717 81.8108 128.24C82.0135 128.752 82.1148 129.285 82.1148 129.84C82.1148 130.619 81.9548 131.339 81.6348 132C81.3255 132.651 80.8881 133.173 80.3228 133.568C79.7575 133.963 79.0961 134.16 78.3388 134.16ZM78.0348 133.2C78.4935 133.2 78.9041 133.109 79.2668 132.928C79.6295 132.736 79.9388 132.48 80.1948 132.16C80.4615 131.84 80.6641 131.483 80.8028 131.088C80.9415 130.683 81.0108 130.267 81.0108 129.84C81.0108 129.392 80.9308 128.965 80.7708 128.56C80.6215 128.155 80.4028 127.797 80.1148 127.488C79.8268 127.179 79.4961 126.933 79.1228 126.752C78.7495 126.571 78.3441 126.48 77.9068 126.48C77.6295 126.48 77.3415 126.533 77.0428 126.64C76.7441 126.747 76.4561 126.901 76.1788 127.104C75.9121 127.296 75.6881 127.515 75.5068 127.76C75.3255 128.005 75.2135 128.267 75.1708 128.544V131.104C75.3415 131.499 75.5708 131.856 75.8588 132.176C76.1468 132.485 76.4775 132.736 76.8508 132.928C77.2348 133.109 77.6295 133.2 78.0348 133.2ZM88.1178 126.624C87.3925 126.645 86.7525 126.848 86.1978 127.232C85.6538 127.616 85.2698 128.144 85.0458 128.816V134H83.9578V125.664H84.9818V127.664C85.2698 127.077 85.6485 126.603 86.1178 126.24C86.5978 125.877 87.1045 125.675 87.6378 125.632C87.7445 125.621 87.8351 125.616 87.9098 125.616C87.9951 125.616 88.0645 125.621 88.1178 125.632V126.624ZM92.8692 134.16C92.2719 134.16 91.7172 134.048 91.2052 133.824C90.7039 133.589 90.2665 133.275 89.8932 132.88C89.5305 132.475 89.2479 132.016 89.0452 131.504C88.8425 130.981 88.7412 130.432 88.7412 129.856C88.7412 129.259 88.8425 128.704 89.0452 128.192C89.2479 127.669 89.5359 127.211 89.9092 126.816C90.2825 126.411 90.7199 126.096 91.2212 125.872C91.7332 125.637 92.2879 125.52 92.8852 125.52C93.4825 125.52 94.0319 125.637 94.5332 125.872C95.0345 126.096 95.4719 126.411 95.8452 126.816C96.2185 127.211 96.5065 127.669 96.7092 128.192C96.9119 128.704 97.0132 129.259 97.0132 129.856C97.0132 130.432 96.9119 130.981 96.7092 131.504C96.5065 132.016 96.2185 132.475 95.8452 132.88C95.4825 133.275 95.0452 133.589 94.5332 133.824C94.0319 134.048 93.4772 134.16 92.8692 134.16ZM89.8452 129.872C89.8452 130.491 89.9785 131.056 90.2452 131.568C90.5225 132.069 90.8905 132.469 91.3492 132.768C91.8079 133.056 92.3145 133.2 92.8692 133.2C93.4239 133.2 93.9305 133.051 94.3892 132.752C94.8479 132.453 95.2159 132.048 95.4932 131.536C95.7705 131.013 95.9092 130.448 95.9092 129.84C95.9092 129.221 95.7705 128.656 95.4932 128.144C95.2159 127.632 94.8479 127.227 94.3892 126.928C93.9305 126.629 93.4239 126.48 92.8692 126.48C92.3145 126.48 91.8079 126.635 91.3492 126.944C90.9012 127.253 90.5385 127.664 90.2612 128.176C89.9839 128.677 89.8452 129.243 89.8452 129.872ZM98.2728 129.856C98.2728 129.067 98.4328 128.347 98.7528 127.696C99.0835 127.035 99.5368 126.507 100.113 126.112C100.689 125.717 101.345 125.52 102.081 125.52C102.774 125.52 103.393 125.707 103.937 126.08C104.491 126.443 104.923 126.885 105.233 127.408V122.32H106.321V132.688C106.321 132.837 106.353 132.949 106.417 133.024C106.481 133.088 106.577 133.125 106.705 133.136V134C106.491 134.032 106.326 134.043 106.209 134.032C105.985 134.021 105.787 133.931 105.617 133.76C105.446 133.589 105.361 133.403 105.361 133.2V132.384C105.03 132.928 104.582 133.36 104.017 133.68C103.451 134 102.865 134.16 102.257 134.16C101.681 134.16 101.147 134.043 100.657 133.808C100.177 133.573 99.7555 133.253 99.3928 132.848C99.0408 132.443 98.7635 131.984 98.5608 131.472C98.3688 130.949 98.2728 130.411 98.2728 129.856ZM105.233 131.136V128.56C105.094 128.176 104.87 127.829 104.561 127.52C104.251 127.2 103.899 126.949 103.505 126.768C103.121 126.576 102.737 126.48 102.353 126.48C101.905 126.48 101.499 126.576 101.137 126.768C100.774 126.949 100.459 127.2 100.193 127.52C99.9368 127.84 99.7395 128.203 99.6008 128.608C99.4621 129.013 99.3928 129.429 99.3928 129.856C99.3928 130.304 99.4675 130.731 99.6168 131.136C99.7768 131.541 100.001 131.904 100.289 132.224C100.577 132.533 100.907 132.773 101.281 132.944C101.654 133.115 102.059 133.2 102.497 133.2C102.774 133.2 103.062 133.147 103.361 133.04C103.659 132.933 103.942 132.789 104.209 132.608C104.486 132.416 104.715 132.192 104.897 131.936C105.078 131.68 105.19 131.413 105.233 131.136ZM108.706 130.56V125.664H109.794V130.368C109.794 131.317 109.954 132.027 110.274 132.496C110.605 132.965 111.09 133.2 111.73 133.2C112.157 133.2 112.567 133.109 112.962 132.928C113.367 132.736 113.725 132.469 114.034 132.128C114.343 131.776 114.578 131.371 114.738 130.912V125.664H115.826V132.688C115.826 132.837 115.858 132.949 115.922 133.024C115.986 133.088 116.082 133.125 116.21 133.136V134C116.082 134.011 115.981 134.016 115.906 134.016C115.831 134.027 115.762 134.032 115.698 134.032C115.485 134.011 115.298 133.925 115.138 133.776C114.989 133.627 114.909 133.445 114.898 133.232L114.866 132.112C114.503 132.752 114.007 133.253 113.378 133.616C112.759 133.979 112.087 134.16 111.362 134.16C110.487 134.16 109.826 133.856 109.378 133.248C108.93 132.64 108.706 131.744 108.706 130.56ZM121.902 134.16C121.294 134.16 120.734 134.048 120.222 133.824C119.721 133.589 119.278 133.269 118.894 132.864C118.521 132.459 118.227 131.995 118.014 131.472C117.811 130.949 117.71 130.395 117.71 129.808C117.71 129.019 117.886 128.299 118.238 127.648C118.59 126.997 119.081 126.48 119.71 126.096C120.339 125.712 121.065 125.52 121.886 125.52C122.665 125.52 123.353 125.701 123.95 126.064C124.547 126.416 124.99 126.896 125.278 127.504L124.222 127.84C123.987 127.413 123.657 127.083 123.23 126.848C122.814 126.603 122.35 126.48 121.838 126.48C121.283 126.48 120.777 126.624 120.318 126.912C119.859 127.2 119.491 127.595 119.214 128.096C118.947 128.597 118.814 129.168 118.814 129.808C118.814 130.437 118.953 131.008 119.23 131.52C119.507 132.032 119.875 132.443 120.334 132.752C120.793 133.051 121.299 133.2 121.854 133.2C122.217 133.2 122.563 133.136 122.894 133.008C123.235 132.88 123.529 132.709 123.774 132.496C124.03 132.272 124.201 132.032 124.286 131.776L125.358 132.096C125.209 132.491 124.958 132.848 124.606 133.168C124.265 133.477 123.859 133.723 123.39 133.904C122.931 134.075 122.435 134.16 121.902 134.16ZM131.067 133.6C130.982 133.632 130.849 133.691 130.667 133.776C130.486 133.861 130.267 133.936 130.011 134C129.755 134.064 129.478 134.096 129.179 134.096C128.87 134.096 128.577 134.037 128.299 133.92C128.033 133.803 127.819 133.627 127.659 133.392C127.499 133.147 127.419 132.848 127.419 132.496V126.528H126.267V125.664H127.419V122.848H128.507V125.664H130.427V126.528H128.507V132.192C128.529 132.491 128.635 132.715 128.827 132.864C129.03 133.013 129.259 133.088 129.515 133.088C129.814 133.088 130.086 133.04 130.331 132.944C130.577 132.837 130.726 132.763 130.779 132.72L131.067 133.6ZM135.163 134.16C134.48 134.16 133.845 134.048 133.259 133.824C132.672 133.6 132.165 133.259 131.739 132.8L132.187 132.032C132.656 132.469 133.125 132.789 133.595 132.992C134.075 133.184 134.581 133.28 135.115 133.28C135.765 133.28 136.293 133.152 136.699 132.896C137.104 132.629 137.307 132.251 137.307 131.76C137.307 131.429 137.205 131.179 137.003 131.008C136.811 130.827 136.528 130.683 136.155 130.576C135.792 130.459 135.355 130.336 134.843 130.208C134.267 130.048 133.781 129.883 133.387 129.712C133.003 129.531 132.709 129.307 132.507 129.04C132.315 128.763 132.219 128.405 132.219 127.968C132.219 127.424 132.352 126.976 132.619 126.624C132.896 126.261 133.269 125.989 133.739 125.808C134.219 125.616 134.752 125.52 135.339 125.52C135.979 125.52 136.544 125.621 137.035 125.824C137.525 126.027 137.925 126.309 138.235 126.672L137.707 127.408C137.408 127.067 137.051 126.816 136.635 126.656C136.229 126.485 135.776 126.4 135.275 126.4C134.933 126.4 134.608 126.448 134.299 126.544C133.989 126.629 133.733 126.779 133.531 126.992C133.339 127.195 133.243 127.477 133.243 127.84C133.243 128.139 133.317 128.373 133.467 128.544C133.616 128.704 133.84 128.843 134.139 128.96C134.437 129.067 134.805 129.184 135.243 129.312C135.872 129.483 136.421 129.659 136.891 129.84C137.36 130.011 137.723 130.235 137.979 130.512C138.235 130.789 138.363 131.179 138.363 131.68C138.363 132.459 138.069 133.067 137.483 133.504C136.896 133.941 136.123 134.16 135.163 134.16ZM56.8859 153.16C56.2886 153.16 55.7339 153.048 55.2219 152.824C54.7099 152.589 54.2673 152.275 53.8939 151.88C53.5206 151.475 53.2273 151.011 53.0139 150.488C52.8113 149.965 52.7099 149.405 52.7099 148.808C52.7099 148.029 52.8859 147.315 53.2379 146.664C53.6006 146.013 54.0966 145.496 54.7259 145.112C55.3553 144.717 56.0699 144.52 56.8699 144.52C57.6913 144.52 58.4059 144.717 59.0139 145.112C59.6326 145.507 60.1179 146.029 60.4699 146.68C60.8219 147.32 60.9979 148.024 60.9979 148.792C60.9979 148.877 60.9979 148.963 60.9979 149.048C60.9979 149.123 60.9926 149.181 60.9819 149.224H53.8459C53.8993 149.821 54.0646 150.355 54.3419 150.824C54.6299 151.283 54.9979 151.651 55.4459 151.928C55.9046 152.195 56.4006 152.328 56.9339 152.328C57.4779 152.328 57.9899 152.189 58.4699 151.912C58.9606 151.635 59.3019 151.272 59.4939 150.824L60.4379 151.08C60.2673 151.475 60.0059 151.832 59.6539 152.152C59.3019 152.472 58.8859 152.723 58.4059 152.904C57.9366 153.075 57.4299 153.16 56.8859 153.16ZM53.8139 148.44H59.9739C59.9313 147.832 59.7659 147.299 59.4779 146.84C59.2006 146.381 58.8326 146.024 58.3739 145.768C57.9259 145.501 57.4299 145.368 56.8859 145.368C56.3419 145.368 55.8459 145.501 55.3979 145.768C54.9499 146.024 54.5819 146.387 54.2939 146.856C54.0166 147.315 53.8566 147.843 53.8139 148.44ZM64.9378 153L61.5618 144.664H62.6978L65.5458 151.912L68.4098 144.664H69.4818L66.1058 153H64.9378ZM74.3078 153.16C73.7105 153.16 73.1558 153.048 72.6438 152.824C72.1318 152.589 71.6891 152.275 71.3158 151.88C70.9425 151.475 70.6491 151.011 70.4358 150.488C70.2331 149.965 70.1318 149.405 70.1318 148.808C70.1318 148.029 70.3078 147.315 70.6598 146.664C71.0225 146.013 71.5185 145.496 72.1478 145.112C72.7771 144.717 73.4918 144.52 74.2918 144.52C75.1131 144.52 75.8278 144.717 76.4358 145.112C77.0545 145.507 77.5398 146.029 77.8918 146.68C78.2438 147.32 78.4198 148.024 78.4198 148.792C78.4198 148.877 78.4198 148.963 78.4198 149.048C78.4198 149.123 78.4145 149.181 78.4038 149.224H71.2678C71.3211 149.821 71.4865 150.355 71.7638 150.824C72.0518 151.283 72.4198 151.651 72.8678 151.928C73.3265 152.195 73.8225 152.328 74.3558 152.328C74.8998 152.328 75.4118 152.189 75.8918 151.912C76.3825 151.635 76.7238 151.272 76.9158 150.824L77.8598 151.08C77.6891 151.475 77.4278 151.832 77.0758 152.152C76.7238 152.472 76.3078 152.723 75.8278 152.904C75.3585 153.075 74.8518 153.16 74.3078 153.16ZM71.2358 148.44H77.3958C77.3531 147.832 77.1878 147.299 76.8998 146.84C76.6225 146.381 76.2545 146.024 75.7958 145.768C75.3478 145.501 74.8518 145.368 74.3078 145.368C73.7638 145.368 73.2678 145.501 72.8198 145.768C72.3718 146.024 72.0038 146.387 71.7158 146.856C71.4385 147.315 71.2785 147.843 71.2358 148.44ZM84.2584 145.624C83.5331 145.645 82.8931 145.848 82.3384 146.232C81.7944 146.616 81.4104 147.144 81.1864 147.816V153H80.0984V144.664H81.1224V146.664C81.4104 146.077 81.7891 145.603 82.2584 145.24C82.7384 144.877 83.2451 144.675 83.7784 144.632C83.8851 144.621 83.9758 144.616 84.0504 144.616C84.1358 144.616 84.2051 144.621 84.2584 144.632V145.624ZM86.1878 155.56C86.3371 155.571 86.4811 155.576 86.6198 155.576C86.7585 155.587 86.8598 155.581 86.9238 155.56C87.0518 155.539 87.1745 155.464 87.2918 155.336C87.4091 155.208 87.5478 154.963 87.7078 154.6C87.8678 154.237 88.0918 153.704 88.3798 153L84.7478 144.664H85.8998L88.9558 151.88L91.7718 144.664H92.8598L88.5398 155.416C88.4651 155.619 88.3531 155.805 88.2038 155.976C88.0545 156.157 87.8678 156.296 87.6438 156.392C87.4305 156.499 87.1638 156.557 86.8438 156.568C86.7478 156.579 86.6465 156.579 86.5398 156.568C86.4438 156.568 86.3265 156.557 86.1878 156.536V155.56ZM97.4603 148.856C97.4603 148.067 97.6203 147.347 97.9403 146.696C98.271 146.035 98.7243 145.507 99.3003 145.112C99.8763 144.717 100.532 144.52 101.268 144.52C101.962 144.52 102.58 144.707 103.124 145.08C103.679 145.443 104.111 145.885 104.42 146.408V141.32H105.508V151.688C105.508 151.837 105.54 151.949 105.604 152.024C105.668 152.088 105.764 152.125 105.892 152.136V153C105.679 153.032 105.514 153.043 105.396 153.032C105.172 153.021 104.975 152.931 104.804 152.76C104.634 152.589 104.548 152.403 104.548 152.2V151.384C104.218 151.928 103.77 152.36 103.204 152.68C102.639 153 102.052 153.16 101.444 153.16C100.868 153.16 100.335 153.043 99.8443 152.808C99.3643 152.573 98.943 152.253 98.5803 151.848C98.2283 151.443 97.951 150.984 97.7483 150.472C97.5563 149.949 97.4603 149.411 97.4603 148.856ZM104.42 150.136V147.56C104.282 147.176 104.058 146.829 103.748 146.52C103.439 146.2 103.087 145.949 102.692 145.768C102.308 145.576 101.924 145.48 101.54 145.48C101.092 145.48 100.687 145.576 100.324 145.768C99.9616 145.949 99.647 146.2 99.3803 146.52C99.1243 146.84 98.927 147.203 98.7883 147.608C98.6496 148.013 98.5803 148.429 98.5803 148.856C98.5803 149.304 98.655 149.731 98.8043 150.136C98.9643 150.541 99.1883 150.904 99.4763 151.224C99.7643 151.533 100.095 151.773 100.468 151.944C100.842 152.115 101.247 152.2 101.684 152.2C101.962 152.2 102.25 152.147 102.548 152.04C102.847 151.933 103.13 151.789 103.396 151.608C103.674 151.416 103.903 151.192 104.084 150.936C104.266 150.68 104.378 150.413 104.42 150.136ZM107.301 150.6C107.301 150.077 107.451 149.629 107.749 149.256C108.048 148.872 108.459 148.579 108.981 148.376C109.515 148.163 110.128 148.056 110.821 148.056C111.227 148.056 111.648 148.088 112.085 148.152C112.523 148.216 112.912 148.312 113.253 148.44V147.736C113.253 147.032 113.045 146.472 112.629 146.056C112.213 145.64 111.637 145.432 110.901 145.432C110.453 145.432 110.011 145.517 109.573 145.688C109.147 145.848 108.699 146.088 108.229 146.408L107.813 145.64C108.357 145.267 108.891 144.989 109.413 144.808C109.936 144.616 110.469 144.52 111.013 144.52C112.037 144.52 112.848 144.813 113.445 145.4C114.043 145.987 114.341 146.797 114.341 147.832V151.688C114.341 151.837 114.373 151.949 114.437 152.024C114.501 152.088 114.603 152.125 114.741 152.136V153C114.624 153.011 114.523 153.021 114.437 153.032C114.352 153.043 114.288 153.043 114.245 153.032C113.979 153.021 113.776 152.936 113.637 152.776C113.499 152.616 113.424 152.445 113.413 152.264L113.397 151.656C113.024 152.136 112.539 152.509 111.941 152.776C111.344 153.032 110.736 153.16 110.117 153.16C109.584 153.16 109.099 153.048 108.661 152.824C108.235 152.589 107.899 152.28 107.653 151.896C107.419 151.501 107.301 151.069 107.301 150.6ZM112.885 151.24C113.003 151.091 113.093 150.947 113.157 150.808C113.221 150.669 113.253 150.547 113.253 150.44V149.224C112.891 149.085 112.512 148.979 112.117 148.904C111.733 148.829 111.344 148.792 110.949 148.792C110.171 148.792 109.541 148.947 109.061 149.256C108.581 149.565 108.341 149.987 108.341 150.52C108.341 150.829 108.421 151.123 108.581 151.4C108.741 151.667 108.976 151.891 109.285 152.072C109.595 152.243 109.957 152.328 110.373 152.328C110.896 152.328 111.381 152.227 111.829 152.024C112.288 151.821 112.64 151.56 112.885 151.24ZM116.922 155.56C117.072 155.571 117.216 155.576 117.354 155.576C117.493 155.587 117.594 155.581 117.658 155.56C117.786 155.539 117.909 155.464 118.026 155.336C118.144 155.208 118.282 154.963 118.442 154.6C118.602 154.237 118.826 153.704 119.114 153L115.482 144.664H116.634L119.69 151.88L122.506 144.664H123.594L119.274 155.416C119.2 155.619 119.088 155.805 118.938 155.976C118.789 156.157 118.602 156.296 118.378 156.392C118.165 156.499 117.898 156.557 117.578 156.568C117.482 156.579 117.381 156.579 117.274 156.568C117.178 156.568 117.061 156.557 116.922 156.536V155.56Z" fill="#A5A5A5"/>
<g clip-path="url(#clip0_4_600)">
<path d="M140.996 30.5C140.996 30.5 128.175 47 110.496 47C92.8171 47 79.9961 30.5 79.9961 30.5C79.9961 30.5 92.8171 14 110.496 14C128.175 14 140.996 30.5 140.996 30.5Z" stroke="black" stroke-width="3.5" stroke-miterlimit="10"/>
<path d="M110.496 42.995C117.4 42.995 122.996 37.3986 122.996 30.495C122.996 23.5914 117.4 17.995 110.496 17.995C103.593 17.995 97.9961 23.5914 97.9961 30.495C97.9961 37.3986 103.593 42.995 110.496 42.995Z" stroke="black" stroke-width="3.5" stroke-miterlimit="10"/>
<path d="M112.504 34.21C111.658 34.7377 110.661 34.9696 109.669 34.8693C108.678 34.769 107.747 34.3423 107.024 33.656C106.301 32.9697 105.826 32.0627 105.675 31.0774C105.523 30.0922 105.702 29.0844 106.185 28.2123C106.668 27.3402 107.427 26.6531 108.343 26.2589C109.258 25.8647 110.279 25.7857 111.244 26.0343C112.21 26.283 113.065 26.8451 113.677 27.6325C114.288 28.42 114.62 29.3881 114.622 30.385V30.512" stroke="black" stroke-width="3.5" stroke-miterlimit="10" stroke-linecap="round"/>
</g>
<defs>
<clipPath id="clip0_4_600">
<rect width="65.432" height="36.5" fill="white" transform="translate(77.78 12.25)"/>
</clipPath>
</defs>
</svg>
